<svg xmlns="http://www.w3.org/2000/svg" viewBox="0 0 275.96 349.83"><defs><style>.cls-1,.cls-3{fill:#9a3333;}.cls-2{fill:#171831;}.cls-3{font-size:36px;font-family:Sarina-Regular, Sarina;}</style></defs><title>logo</title><g id="Calque_2" data-name="Calque 2"><g id="Calque_1-2" data-name="Calque 1"><path class="cls-1" d="M230.58,139.78C216,212,188.43,268.61,149.64,269c-46.82.44-77.54-58.84-85.62-129.2C55.47,65.33,102,0,148.8,0S246.05,63.21,230.58,139.78Z"/><path class="cls-1" d="M243.07,257.3c0,27-43.07,16.79-83.22,38-39,20.58-100.26-34.35-81.75-54,23.36-24.82,35.79-48.9,79.93-48.9S243.07,230.29,243.07,257.3Z"/><path class="cls-2" d="M200.79,116.42c-8.51,12.94-26.22,151.1-51.83,151.1s-35.43-84.46-55.47-147.45c-19.74-62,32.82-95.62,55.09-98.54C173.18,18.31,238.72,58.76,200.79,116.42Z"/><path class="cls-1" d="M132.82,83.07c-7.86,14.21-19.45,22.86-25.88,19.3s-1.35-16.26,10.44-27.08c12-11,11.62-28,18-24.4S140.68,68.85,132.82,83.07Z"/><path class="cls-1" d="M163.66,82c7.24,14.54,18.44,23.67,25,20.4s2-16.19-9.27-27.51c-11.48-11.49-10.4-28.43-17-25.15S156.41,67.5,163.66,82Z"/><path class="cls-1" d="M147.25,105.83c0,5.19-1.57,9.39-3.5,9.39s-3.49-4.2-3.49-9.39.56-9.38,2.49-9.38S147.25,100.65,147.25,105.83Z"/><path class="cls-1" d="M163.45,179.2c0,27.41-1.36,39.89-6.57,50.36-9.43,19-35.76-22.95-35.76-50.36s9.47-49.64,21.16-49.64S163.45,151.78,163.45,179.2Z"/><text class="cls-3" transform="translate(0 338.16)">Scary Blind</text><path class="cls-1" d="M155.77,105.73c0,5.19-1.56,9.39-3.49,9.39s-3.5-4.2-3.5-9.39.57-9.38,2.5-9.38S155.77,100.55,155.77,105.73Z"/></g></g></svg>